<?xml version="1.0" encoding="UTF-8" standalone="no"?>
<svg
   xmlns:dc="http://purl.org/dc/elements/1.1/"
   xmlns:cc="http://creativecommons.org/ns#"
   xmlns:rdf="http://www.w3.org/1999/02/22-rdf-syntax-ns#"
   xmlns:svg="http://www.w3.org/2000/svg"
   xmlns="http://www.w3.org/2000/svg"
   viewBox="0 0 533.34003 728"
   height="728"
   width="533.34003"
   xml:space="preserve"
   id="svg2"
   version="1.1"><metadata
     id="metadata8"><rdf:RDF><cc:Work
         rdf:about=""><dc:format>image/svg+xml</dc:format><dc:type
           rdf:resource="http://purl.org/dc/dcmitype/StillImage" /></cc:Work></rdf:RDF></metadata><defs
     id="defs6"><clipPath
       id="clipPath18"
       clipPathUnits="userSpaceOnUse"><path
         id="path16"
         d="M 0,546 H 400.005 V 0 H 0 Z" /></clipPath><clipPath
       id="clipPath46"
       clipPathUnits="userSpaceOnUse"><path
         id="path44"
         d="M 0,546 H 400.005 V 0 H 0 Z" /></clipPath><clipPath
       id="clipPath54"
       clipPathUnits="userSpaceOnUse"><path
         id="path52"
         d="m 184.555,25.0631 h 24.62 V 0.451874 h -24.62 z" /></clipPath><clipPath
       id="clipPath74"
       clipPathUnits="userSpaceOnUse"><path
         id="path72"
         d="m 184.554,130.429 h 24.62 v -24.611 h -24.62 z" /></clipPath><clipPath
       id="clipPath94"
       clipPathUnits="userSpaceOnUse"><path
         id="path92"
         d="m 184.555,235.797 h 24.62 v -24.611 h -24.62 z" /></clipPath><clipPath
       id="clipPath114"
       clipPathUnits="userSpaceOnUse"><path
         id="path112"
         d="m 184.554,341.165 h 24.621 v -24.612 h -24.621 z" /></clipPath><clipPath
       id="clipPath134"
       clipPathUnits="userSpaceOnUse"><path
         id="path132"
         d="m 184.555,446.532 h 24.621 v -24.611 h -24.621 z" /></clipPath><clipPath
       id="clipPath154"
       clipPathUnits="userSpaceOnUse"><path
         id="path152"
         d="M 0,546 H 400.005 V 0 H 0 Z" /></clipPath><clipPath
       id="clipPath180"
       clipPathUnits="userSpaceOnUse"><path
         id="path178"
         d="M 0,546 H 400.005 V 0 H 0 Z" /></clipPath><clipPath
       id="clipPath206"
       clipPathUnits="userSpaceOnUse"><path
         id="path204"
         d="M 0,546 H 400.005 V 0 H 0 Z" /></clipPath><clipPath
       id="clipPath214"
       clipPathUnits="userSpaceOnUse"><path
         id="path212"
         d="M 20.3855,309.153 H 373.884 V 243.197 H 20.3855 Z" /></clipPath><clipPath
       id="clipPath262"
       clipPathUnits="userSpaceOnUse"><path
         id="path260"
         d="M 0,546 H 400.005 V 0 H 0 Z" /></clipPath><clipPath
       id="clipPath288"
       clipPathUnits="userSpaceOnUse"><path
         id="path286"
         d="M 0,546 H 400.005 V 0 H 0 Z" /></clipPath></defs><g
     transform="matrix(1.3333333,0,0,-1.3333333,0,728)"
     id="g10"><g
       id="g12"><g
         clip-path="url(#clipPath18)"
         id="g14"><g
           transform="translate(243.0354,65.4382)"
           id="g20"><path
             id="path22"
             style="fill:#ffffff;fill-opacity:1;fill-rule:nonzero;stroke:none"
             d="m 0,0 c 0,-25.5 -20.671,-46.171 -46.171,-46.171 v -13.026 c 32.694,0.002 59.196,26.506 59.196,59.197 0,32.691 -26.502,59.194 -59.196,59.195 V 46.171 C -20.671,46.171 0,25.5 0,0" /></g><g
           transform="translate(196.8655,124.6335)"
           id="g24"><path
             id="path26"
             style="fill:#ffffff;fill-opacity:1;fill-rule:nonzero;stroke:none"
             d="m 0,0 v 0 c -25.499,0 -46.171,20.672 -46.171,46.172 0,25.499 20.672,46.171 46.171,46.171 v 13.025 c -32.691,0 -59.196,-26.502 -59.196,-59.196 0,-32.693 26.505,-59.196 59.196,-59.196 z" /></g><g
           transform="translate(243.0345,276.173)"
           id="g28"><path
             id="path30"
             style="fill:#ffffff;fill-opacity:1;fill-rule:nonzero;stroke:none"
             d="m 0,0 c 0,-25.499 -20.67,-46.171 -46.169,-46.171 v -13.026 c 32.694,0.001 59.195,26.505 59.195,59.197 0,32.692 -26.501,59.195 -59.195,59.196 V 46.171 C -20.67,46.17 0,25.499 0,0" /></g><g
           transform="translate(196.8655,335.3688)"
           id="g32"><path
             id="path34"
             style="fill:#ffffff;fill-opacity:1;fill-rule:nonzero;stroke:none"
             d="m 0,0 v 0 c -25.499,0 -46.17,20.672 -46.17,46.172 0,25.5 20.671,46.171 46.17,46.171 v 13.024 c -32.691,0 -59.196,-26.502 -59.196,-59.195 0,-32.693 26.505,-59.196 59.196,-59.196 z" /></g><g
           transform="translate(196.8655,440.736)"
           id="g36"><path
             id="path38"
             style="fill:#ffffff;fill-opacity:1;fill-rule:nonzero;stroke:none"
             d="m 0,0 v -13.024 c 32.694,10e-4 59.195,26.503 59.195,59.196 0,30.496 -23.059,55.606 -52.696,58.843 C 2.925,105.405 0,102.452 0,98.855 0,95.259 2.929,92.392 6.491,91.891 28.917,88.734 46.169,69.468 46.169,46.172 46.169,20.673 25.499,0.001 0,0" /></g></g></g><g
       id="g40"><g
         clip-path="url(#clipPath46)"
         id="g42"><g
           id="g48"><g
             id="g50" /><g
             id="g62"><g
               id="g60"
               clip-path="url(#clipPath54)"><g
                 id="g58"
                 transform="translate(209.1751,12.7555)"><path
                   id="path56"
                   style="fill:#ffb600;fill-opacity:1;fill-rule:nonzero;stroke:none"
                   d="m 0,0 c 0,6.796 -5.518,12.308 -12.309,12.308 -6.799,0 -12.312,-5.513 -12.312,-12.309 0,-6.791 5.513,-12.303 12.312,-12.303 C -5.518,-12.304 0,-6.792 0,0" /></g></g></g></g><g
           transform="translate(196.8665,6.2448)"
           id="g64"><path
             id="path66"
             style="fill:#ffffff;fill-opacity:1;fill-rule:nonzero;stroke:none"
             d="m 0,0 c -3.593,0 -6.515,2.918 -6.515,6.51 0,3.592 2.922,6.514 6.515,6.514 3.594,0 6.512,-2.921 6.512,-6.513 C 6.512,2.919 3.594,0 0,0" /></g><g
           id="g68"><g
             id="g70" /><g
             id="g82"><g
               id="g80"
               clip-path="url(#clipPath74)"><g
                 id="g78"
                 transform="translate(209.1741,118.1237)"><path
                   id="path76"
                   style="fill:#ffb600;fill-opacity:1;fill-rule:nonzero;stroke:none"
                   d="m 0,0 c 0,6.795 -5.518,12.306 -12.31,12.306 -6.797,0 -12.311,-5.511 -12.311,-12.307 0,-6.792 5.514,-12.305 12.311,-12.305 C -5.518,-12.306 0,-6.793 0,0" /></g></g></g></g><g
           transform="translate(196.8645,111.611)"
           id="g84"><path
             id="path86"
             style="fill:#ffffff;fill-opacity:1;fill-rule:nonzero;stroke:none"
             d="m 0,0 c -3.593,0 -6.513,2.919 -6.513,6.512 0,3.592 2.92,6.512 6.513,6.512 3.594,0 6.512,-2.92 6.512,-6.512 C 6.512,2.919 3.594,0 0,0" /></g><g
           id="g88"><g
             id="g90" /><g
             id="g102"><g
               id="g100"
               clip-path="url(#clipPath94)"><g
                 id="g98"
                 transform="translate(209.1751,223.4904)"><path
                   id="path96"
                   style="fill:#ffb600;fill-opacity:1;fill-rule:nonzero;stroke:none"
                   d="m 0,0 c 0,6.796 -5.518,12.307 -12.31,12.307 -6.798,0 -12.311,-5.511 -12.311,-12.307 0,-6.792 5.513,-12.304 12.311,-12.304 C -5.518,-12.304 0,-6.792 0,0" /></g></g></g></g><g
           transform="translate(196.8655,216.9792)"
           id="g104"><path
             id="path106"
             style="fill:#ffffff;fill-opacity:1;fill-rule:nonzero;stroke:none"
             d="m 0,0 c -3.594,0 -6.514,2.918 -6.514,6.51 0,3.592 2.92,6.514 6.514,6.514 3.593,0 6.512,-2.922 6.512,-6.514 C 6.512,2.918 3.593,0 0,0" /></g><g
           id="g108"><g
             id="g110" /><g
             id="g122"><g
               id="g120"
               clip-path="url(#clipPath114)"><g
                 id="g118"
                 transform="translate(209.1751,328.8581)"><path
                   id="path116"
                   style="fill:#ffb600;fill-opacity:1;fill-rule:nonzero;stroke:none"
                   d="m 0,0 c 0,6.796 -5.518,12.307 -12.31,12.307 -6.798,0 -12.311,-5.511 -12.311,-12.307 0,-6.792 5.513,-12.305 12.311,-12.305 C -5.518,-12.305 0,-6.792 0,0" /></g></g></g></g><g
           transform="translate(196.8655,322.3473)"
           id="g124"><path
             id="path126"
             style="fill:#ffffff;fill-opacity:1;fill-rule:nonzero;stroke:none"
             d="m 0,0 c -3.593,0 -6.515,2.918 -6.515,6.509 0,3.593 2.922,6.515 6.515,6.515 3.593,0 6.512,-2.922 6.512,-6.515 C 6.512,2.918 3.593,0 0,0" /></g><g
           id="g128"><g
             id="g130" /><g
             id="g142"><g
               id="g140"
               clip-path="url(#clipPath134)"><g
                 id="g138"
                 transform="translate(209.1761,434.2253)"><path
                   id="path136"
                   style="fill:#ffb600;fill-opacity:1;fill-rule:nonzero;stroke:none"
                   d="m 0,0 c 0,6.796 -5.519,12.307 -12.311,12.307 -6.798,0 -12.31,-5.511 -12.31,-12.307 0,-6.793 5.512,-12.305 12.31,-12.305 C -5.519,-12.305 0,-6.793 0,0" /></g></g></g></g><g
           transform="translate(196.8655,427.7155)"
           id="g144"><path
             id="path146"
             style="fill:#ffffff;fill-opacity:1;fill-rule:nonzero;stroke:none"
             d="m 0,0 c -3.593,0 -6.514,2.918 -6.514,6.509 0,3.592 2.921,6.513 6.514,6.513 3.594,0 6.512,-2.921 6.512,-6.513 C 6.512,2.918 3.594,0 0,0" /></g></g></g><g
       id="g148"><g
         clip-path="url(#clipPath154)"
         id="g150"><g
           transform="translate(224.4036,65.4342)"
           id="g156"><path
             id="path158"
             style="fill:#ffffff;fill-opacity:1;fill-rule:nonzero;stroke:none"
             d="m 0,0 c 0,16.534 -13.422,29.938 -29.946,29.938 -16.54,0 -29.949,-13.404 -29.949,-29.938 0,-16.521 13.409,-29.929 29.949,-29.929 C -13.422,-29.929 0,-16.521 0,0 m -29.946,-32.973 c -18.221,0 -32.991,14.772 -32.991,32.973 0,18.214 14.77,32.983 32.991,32.983 18.203,0 32.988,-14.769 32.988,-32.983 0,-18.201 -14.785,-32.973 -32.988,-32.973" /></g></g></g><text
       id="text164"
       style="font-variant:normal;font-weight:bold;font-stretch:normal;font-size:16px;font-family:'Myriad Pro';-inkscape-font-specification:MyriadPro-Bold;writing-mode:lr-tb;fill:#ffffff;fill-opacity:1;fill-rule:nonzero;stroke:none"
       transform="matrix(1,0,0,-1,12.3628,71.4565)"><tspan
         id="tspan160"
         y="0"
         x="0 10.272 18.816 28.112 36.784 45.487999 48.720001 57.599998 66.480003 69.711998 80.736 89.4384 100.4464 109.1984 119.5184">ЧЕРЕЗ 12 НЕДЕЛЬ</tspan><tspan
         id="tspan162"
         y="19.200001"
         x="23.743999 34.576 46.048 55.886398 66.206398 74.750397 77.982399 88.8144 98.414398 106.6528 118.1248">ПОСЛЕ ПЯТОЙ</tspan></text>
<text
       id="text168"
       style="font-variant:normal;font-weight:bold;font-stretch:normal;font-size:25px;font-family:'Myriad Pro';-inkscape-font-specification:MyriadPro-Bold;writing-mode:lr-tb;fill:#ffffff;fill-opacity:1;fill-rule:nonzero;stroke:none"
       transform="matrix(1,0,0,-1,276.0615,59.2148)"><tspan
         id="tspan166"
         y="0"
         x="0 13.875 27.75 32.799999 50 67.224998">84 ДНЯ</tspan></text>
<text
       id="text172"
       style="font-variant:normal;font-weight:bold;font-stretch:normal;font-size:54px;font-family:'Myriad Pro';-inkscape-font-specification:MyriadPro-Bold;writing-mode:lr-tb;fill:#ffffff;fill-opacity:1;fill-rule:nonzero;stroke:none"
       transform="matrix(1,0,0,-1,179.543,49.1816)"><tspan
         id="tspan170"
         y="0"
         x="0">6</tspan></text>
<g
       id="g174"><g
         clip-path="url(#clipPath180)"
         id="g176"><g
           transform="translate(224.4026,170.8034)"
           id="g182"><path
             id="path184"
             style="fill:#ffffff;fill-opacity:1;fill-rule:nonzero;stroke:none"
             d="m 0,0 c 0,16.533 -13.422,29.939 -29.945,29.939 -16.541,0 -29.95,-13.406 -29.95,-29.94 0,-16.52 13.409,-29.93 29.95,-29.93 C -13.422,-29.931 0,-16.521 0,0 m -29.945,-32.974 c -18.222,0 -32.991,14.771 -32.991,32.973 0,18.216 14.769,32.983 32.991,32.983 18.202,0 32.989,-14.767 32.989,-32.982 0,-18.203 -14.787,-32.974 -32.989,-32.974" /></g></g></g><text
       id="text190"
       style="font-variant:normal;font-weight:bold;font-stretch:normal;font-size:16px;font-family:'Myriad Pro';-inkscape-font-specification:MyriadPro-Bold;writing-mode:lr-tb;fill:#ffffff;fill-opacity:1;fill-rule:nonzero;stroke:none"
       transform="matrix(1,0,0,-1,247.5288,177.4395)"><tspan
         id="tspan186"
         y="0"
         x="0 10.272 18.816 28.112 36.784 45.487999 48.720001 57.599998 66.480003 69.711998 80.736 89.4384 100.4464 109.1984 119.5184">ЧЕРЕЗ 10 НЕДЕЛЬ</tspan><tspan
         id="tspan188"
         y="19.200001"
         x="0 10.832 22.304001 32.142399 42.462399 51.006401 54.2384 64.510399 73.054398 81.822403 91.486397 100.0304 109.4704 117.7104 129.1824">ПОСЛЕ ЧЕТВЁРТОЙ</tspan></text>
<text
       id="text194"
       style="font-variant:normal;font-weight:bold;font-stretch:normal;font-size:54px;font-family:'Myriad Pro';-inkscape-font-specification:MyriadPro-Bold;writing-mode:lr-tb;fill:#ffffff;fill-opacity:1;fill-rule:nonzero;stroke:none"
       transform="matrix(1,0,0,-1,179.543,154.1816)"><tspan
         id="tspan192"
         y="0"
         x="0">5</tspan></text>
<text
       id="text198"
       style="font-variant:normal;font-weight:bold;font-stretch:normal;font-size:25px;font-family:'Myriad Pro';-inkscape-font-specification:MyriadPro-Bold;writing-mode:lr-tb;fill:#ffffff;fill-opacity:1;fill-rule:nonzero;stroke:none"
       transform="matrix(1,0,0,-1,19.7036,165.1978)"><tspan
         id="tspan196"
         y="0"
         x="0 13.875 27.75 32.799999 50 67.224998 80.574997">70 ДНЕЙ</tspan></text>
<g
       id="g200"><g
         clip-path="url(#clipPath206)"
         id="g202"><g
           id="g208"><g
             id="g210" /><g
             id="g254"><g
               id="g252"
               clip-path="url(#clipPath214)"><g
                 id="g218"
                 transform="translate(224.4036,276.1696)"><path
                   id="path216"
                   style="fill:#e0e0e0;fill-opacity:1;fill-rule:nonzero;stroke:none"
                   d="m 0,0 c 0,16.534 -13.422,29.938 -29.946,29.938 -16.54,0 -29.948,-13.404 -29.949,-29.938 0,-16.52 13.409,-29.928 29.949,-29.928 C -13.422,-29.928 0,-16.52 0,0 m -29.946,-32.973 c -18.221,0 -32.991,14.772 -32.991,32.973 10e-4,18.214 14.77,32.983 32.991,32.983 18.203,0 32.988,-14.769 32.988,-32.983 0,-18.201 -14.785,-32.973 -32.988,-32.973" /></g><text
                 id="text224"
                 style="font-variant:normal;font-weight:bold;font-stretch:normal;font-size:16px;font-family:'Myriad Pro';-inkscape-font-specification:MyriadPro-Bold;writing-mode:lr-tb;fill:#e0e0e0;fill-opacity:1;fill-rule:nonzero;stroke:none"
                 transform="matrix(1,0,0,-1,20.3857,281.4648)"><tspan
                   id="tspan220"
                   y="0"
                   x="0 10.272 18.816 28.112 36.784 45.487999 48.720001 57.599998 60.832001 71.856003 80.559998 91.568001 100.32 110.64">ЧЕРЕЗ 8 НЕДЕЛЬ</tspan><tspan
                   id="tspan222"
                   y="19.200001"
                   x="0.72000003 11.552 23.024 32.863998 43.183998 51.728001 54.959999 63.728001 73.024002 81.568001 90.335999 99.984001 108.528">ПОСЛЕ ТРЕТЬЕЙ</tspan></text>
<text
                 id="text228"
                 style="font-variant:normal;font-weight:bold;font-stretch:normal;font-size:25px;font-family:'Myriad Pro';-inkscape-font-specification:MyriadPro-Bold;writing-mode:lr-tb;fill:#e0e0e0;fill-opacity:1;fill-rule:nonzero;stroke:none"
                 transform="matrix(1,0,0,-1,276.0615,269.2236)"><tspan
                   id="tspan226"
                   y="0"
                   x="0 13.875 27.75 32.799999 50 67.224998 80.574997">56 ДНЕЙ</tspan></text>
<text
                 id="text232"
                 style="font-variant:normal;font-weight:bold;font-stretch:normal;font-size:54px;font-family:'Myriad Pro';-inkscape-font-specification:MyriadPro-Bold;writing-mode:lr-tb;fill:#e0e0e0;fill-opacity:1;fill-rule:nonzero;stroke:none"
                 transform="matrix(1,0,0,-1,179.543,260.1816)"><tspan
                   id="tspan230"
                   y="0"
                   x="0">4</tspan></text>
<g
                 id="g236"
                 transform="translate(224.4036,276.1696)"><path
                   id="path234"
                   style="fill:#ffffff;fill-opacity:1;fill-rule:nonzero;stroke:none"
                   d="m 0,0 c 0,16.534 -13.422,29.938 -29.946,29.938 -16.54,0 -29.948,-13.404 -29.949,-29.938 0,-16.52 13.409,-29.928 29.949,-29.928 C -13.422,-29.928 0,-16.52 0,0 m -29.946,-32.973 c -18.221,0 -32.991,14.772 -32.991,32.973 10e-4,18.214 14.77,32.983 32.991,32.983 18.203,0 32.988,-14.769 32.988,-32.983 0,-18.201 -14.785,-32.973 -32.988,-32.973" /></g><text
                 id="text242"
                 style="font-variant:normal;font-weight:bold;font-stretch:normal;font-size:16px;font-family:'Myriad Pro';-inkscape-font-specification:MyriadPro-Bold;writing-mode:lr-tb;fill:#ffffff;fill-opacity:1;fill-rule:nonzero;stroke:none"
                 transform="matrix(1,0,0,-1,20.3857,281.4648)"><tspan
                   id="tspan238"
                   y="0"
                   x="0 10.272 18.816 28.112 36.784 45.487999 48.720001 57.599998 60.832001 71.856003 80.559998 91.568001 100.32 110.64">ЧЕРЕЗ 8 НЕДЕЛЬ</tspan><tspan
                   id="tspan240"
                   y="19.200001"
                   x="0.72000003 11.552 23.024 32.863998 43.183998 51.728001 54.959999 63.728001 73.024002 81.568001 90.335999 99.984001 108.528">ПОСЛЕ ТРЕТЬЕЙ</tspan></text>
<text
                 id="text246"
                 style="font-variant:normal;font-weight:bold;font-stretch:normal;font-size:25px;font-family:'Myriad Pro';-inkscape-font-specification:MyriadPro-Bold;writing-mode:lr-tb;fill:#ffffff;fill-opacity:1;fill-rule:nonzero;stroke:none"
                 transform="matrix(1,0,0,-1,276.0615,269.2236)"><tspan
                   id="tspan244"
                   y="0"
                   x="0 13.875 27.75 32.799999 50 67.224998 80.574997">56 ДНЕЙ</tspan></text>
<text
                 id="text250"
                 style="font-variant:normal;font-weight:bold;font-stretch:normal;font-size:54px;font-family:'Myriad Pro';-inkscape-font-specification:MyriadPro-Bold;writing-mode:lr-tb;fill:#ffffff;fill-opacity:1;fill-rule:nonzero;stroke:none"
                 transform="matrix(1,0,0,-1,179.543,260.1816)"><tspan
                   id="tspan248"
                   y="0"
                   x="0">4</tspan></text>
</g></g></g></g></g><g
       id="g256"><g
         clip-path="url(#clipPath262)"
         id="g258"><g
           transform="translate(224.4036,381.5378)"
           id="g264"><path
             id="path266"
             style="fill:#ffffff;fill-opacity:1;fill-rule:nonzero;stroke:none"
             d="m 0,0 c 0,16.533 -13.422,29.939 -29.946,29.939 -16.542,0 -29.95,-13.406 -29.95,-29.939 0,-16.521 13.408,-29.929 29.95,-29.929 C -13.422,-29.929 0,-16.521 0,0 m -29.946,-32.973 c -18.222,0 -32.991,14.772 -32.991,32.973 0,18.215 14.769,32.983 32.991,32.983 18.203,0 32.989,-14.768 32.989,-32.983 0,-18.201 -14.786,-32.973 -32.989,-32.973" /></g></g></g><text
       id="text272"
       style="font-variant:normal;font-weight:bold;font-stretch:normal;font-size:16px;font-family:'Myriad Pro';-inkscape-font-specification:MyriadPro-Bold;writing-mode:lr-tb;fill:#ffffff;fill-opacity:1;fill-rule:nonzero;stroke:none"
       transform="matrix(1,0,0,-1,247.5288,387.1973)"><tspan
         id="tspan268"
         y="0"
         x="0 10.272 18.816 28.112 36.784 45.487999 48.720001 57.599998 60.832001 71.856003 80.558403 91.566399 100.3184 110.6384">ЧЕРЕЗ 6 НЕДЕЛЬ</tspan><tspan
         id="tspan270"
         y="19.200001"
         x="0 10.832 22.304001 32.142399 42.462399 51.006401 54.2384 63.790401 72.030403 83.502403 92.750397 104.2224">ПОСЛЕ ВТОРОЙ</tspan></text>
<text
       id="text276"
       style="font-variant:normal;font-weight:bold;font-stretch:normal;font-size:54px;font-family:'Myriad Pro';-inkscape-font-specification:MyriadPro-Bold;writing-mode:lr-tb;fill:#ffffff;fill-opacity:1;fill-rule:nonzero;stroke:none"
       transform="matrix(1,0,0,-1,180.5273,365.1816)"><tspan
         id="tspan274"
         y="0"
         x="0">3</tspan></text>
<text
       id="text280"
       style="font-variant:normal;font-weight:bold;font-stretch:normal;font-size:25px;font-family:'Myriad Pro';-inkscape-font-specification:MyriadPro-Bold;writing-mode:lr-tb;fill:#ffffff;fill-opacity:1;fill-rule:nonzero;stroke:none"
       transform="matrix(1,0,0,-1,35.3037,374.9551)"><tspan
         id="tspan278"
         y="0"
         x="0 13.875 27.75 32.799999 50 67.224998">42 ДНЯ</tspan></text>
<g
       id="g282"><g
         clip-path="url(#clipPath288)"
         id="g284"><g
           transform="translate(224.2298,488.8903)"
           id="g290"><path
             id="path292"
             style="fill:#ffffff;fill-opacity:1;fill-rule:nonzero;stroke:none"
             d="m 0,0 c 0,16.533 -13.422,29.939 -29.946,29.939 -16.542,0 -29.95,-13.406 -29.95,-29.939 0,-16.52 13.408,-29.929 29.95,-29.929 C -13.422,-29.929 0,-16.52 0,0 m -29.946,-32.973 c -18.222,0 -32.993,14.771 -32.993,32.973 0,18.215 14.771,32.983 32.993,32.983 18.202,0 32.988,-14.768 32.988,-32.983 0,-18.202 -14.786,-32.973 -32.988,-32.973" /></g></g></g><text
       id="text296"
       style="font-variant:normal;font-weight:bold;font-stretch:normal;font-size:54px;font-family:'Myriad Pro';-inkscape-font-specification:MyriadPro-Bold;writing-mode:lr-tb;fill:#ffffff;fill-opacity:1;fill-rule:nonzero;stroke:none"
       transform="matrix(1,0,0,-1,180.5273,473.1816)"><tspan
         id="tspan294"
         y="0"
         x="0">2</tspan></text>
<text
       id="text300"
       style="font-variant:normal;font-weight:bold;font-stretch:normal;font-size:25px;font-family:'Myriad Pro';-inkscape-font-specification:MyriadPro-Bold;writing-mode:lr-tb;fill:#ffffff;fill-opacity:1;fill-rule:nonzero;stroke:none"
       transform="matrix(1,0,0,-1,276.0615,484.7275)"><tspan
         id="tspan298"
         y="0"
         x="0 13.875 27.75 32.799999 50 67.224998 80.574997">28 ДНЕЙ</tspan></text>
<text
       id="text306"
       style="font-variant:normal;font-weight:bold;font-stretch:normal;font-size:16px;font-family:'Myriad Pro';-inkscape-font-specification:MyriadPro-Bold;writing-mode:lr-tb;fill:#ffffff;fill-opacity:1;fill-rule:nonzero;stroke:none"
       transform="matrix(1,0,0,-1,19.6899,496.9697)"><tspan
         id="tspan302"
         y="0"
         x="0 10.272 18.816 28.112 36.784 45.487999 48.720001 57.599998 60.832001 71.856003 80.558403 91.566399 100.3184 110.6384">ЧЕРЕЗ 4 НЕДЕЛИ</tspan><tspan
         id="tspan304"
         y="19.200001"
         x="3.3280001 14.16 25.632 35.470402 45.790401 54.3344 57.566399 68.398399 76.942398 86.238403 95.838402 107.3104">ПОСЛЕ ПЕРВОЙ</tspan></text>
</g></svg>