<?xml version="1.0" encoding="UTF-8" standalone="no"?>
<svg
   xmlns:dc="http://purl.org/dc/elements/1.1/"
   xmlns:cc="http://creativecommons.org/ns#"
   xmlns:rdf="http://www.w3.org/1999/02/22-rdf-syntax-ns#"
   xmlns:svg="http://www.w3.org/2000/svg"
   xmlns="http://www.w3.org/2000/svg"
   viewBox="0 0 738.28668 251"
   height="251"
   width="738.28668"
   xml:space="preserve"
   id="svg2"
   version="1.1"><metadata
     id="metadata8"><rdf:RDF><cc:Work
         rdf:about=""><dc:format>image/svg+xml</dc:format><dc:type
           rdf:resource="http://purl.org/dc/dcmitype/StillImage" /></cc:Work></rdf:RDF></metadata><defs
     id="defs6"><clipPath
       id="clipPath18"
       clipPathUnits="userSpaceOnUse"><path
         id="path16"
         d="M 0,188.25 H 553.715 V 0 H 0 Z" /></clipPath><clipPath
       id="clipPath46"
       clipPathUnits="userSpaceOnUse"><path
         id="path44"
         d="M 0,188.25 H 553.715 V 0 H 0 Z" /></clipPath><clipPath
       id="clipPath54"
       clipPathUnits="userSpaceOnUse"><path
         id="path52"
         d="m 529.104,109.351 h 24.611 V 84.73 h -24.611 z" /></clipPath><clipPath
       id="clipPath74"
       clipPathUnits="userSpaceOnUse"><path
         id="path72"
         d="m 423.737,109.35 h 24.612 V 84.729 h -24.612 z" /></clipPath><clipPath
       id="clipPath94"
       clipPathUnits="userSpaceOnUse"><path
         id="path92"
         d="m 318.37,109.351 h 24.61 V 84.73 h -24.61 z" /></clipPath><clipPath
       id="clipPath114"
       clipPathUnits="userSpaceOnUse"><path
         id="path112"
         d="m 213.002,109.351 h 24.611 V 84.7295 h -24.611 z" /></clipPath><clipPath
       id="clipPath134"
       clipPathUnits="userSpaceOnUse"><path
         id="path132"
         d="m 107.635,109.352 h 24.611 V 84.7305 h -24.611 z" /></clipPath><clipPath
       id="clipPath154"
       clipPathUnits="userSpaceOnUse"><path
         id="path152"
         d="M 0,188.25 H 553.715 V 0 H 0 Z" /></clipPath><clipPath
       id="clipPath170"
       clipPathUnits="userSpaceOnUse"><path
         id="path168"
         d="M 0,188.25 H 553.715 V 0 H 0 Z" /></clipPath><clipPath
       id="clipPath186"
       clipPathUnits="userSpaceOnUse"><path
         id="path184"
         d="M 0,188.25 H 553.715 V 0 H 0 Z" /></clipPath><clipPath
       id="clipPath210"
       clipPathUnits="userSpaceOnUse"><path
         id="path208"
         d="M 0,188.25 H 553.715 V 0 H 0 Z" /></clipPath><clipPath
       id="clipPath218"
       clipPathUnits="userSpaceOnUse"><path
         id="path216"
         d="M 212.558,238.736 H 332.845 V -2.49609 H 212.558 Z" /></clipPath><clipPath
       id="clipPath258"
       clipPathUnits="userSpaceOnUse"><path
         id="path256"
         d="M 0,188.25 H 553.715 V 0 H 0 Z" /></clipPath><clipPath
       id="clipPath282"
       clipPathUnits="userSpaceOnUse"><path
         id="path280"
         d="M 0,188.25 H 553.715 V 0 H 0 Z" /></clipPath><clipPath
       id="clipPath302"
       clipPathUnits="userSpaceOnUse"><path
         id="path300"
         d="M 0,188.25 H 553.715 V 0 H 0 Z" /></clipPath></defs><g
     transform="matrix(1.3333333,0,0,-1.3333333,0,251)"
     id="g10"><g
       id="g12"><g
         clip-path="url(#clipPath18)"
         id="g14"><g
           transform="translate(488.7289,143.2109)"
           id="g20"><path
             id="path22"
             style="fill:#ffffff;fill-opacity:1;fill-rule:nonzero;stroke:none"
             d="M 0,0 C 25.5,0 46.171,-20.671 46.171,-46.171 H 59.197 C 59.195,-13.477 32.691,13.025 0,13.025 c -32.691,0 -59.194,-26.502 -59.195,-59.196 h 13.024 C -46.171,-20.671 -25.5,0 0,0" /></g><g
           transform="translate(429.5335,97.041)"
           id="g24"><path
             id="path26"
             style="fill:#ffffff;fill-opacity:1;fill-rule:nonzero;stroke:none"
             d="m 0,0 v 0 c 0,-25.499 -20.672,-46.171 -46.172,-46.171 -25.499,0 -46.171,20.672 -46.171,46.171 h -13.025 c 0,-32.691 26.502,-59.196 59.196,-59.196 32.693,0 59.196,26.505 59.196,59.196 z" /></g><g
           transform="translate(277.9935,143.21)"
           id="g28"><path
             id="path30"
             style="fill:#ffffff;fill-opacity:1;fill-rule:nonzero;stroke:none"
             d="M 0,0 C 25.499,0 46.172,-20.67 46.172,-46.169 H 59.197 C 59.196,-13.475 32.692,13.026 0,13.026 c -32.692,0 -59.195,-26.501 -59.196,-59.195 h 13.025 C -46.17,-20.67 -25.499,0 0,0" /></g><g
           transform="translate(218.7977,97.041)"
           id="g32"><path
             id="path34"
             style="fill:#ffffff;fill-opacity:1;fill-rule:nonzero;stroke:none"
             d="m 0,0 v 0 c 0,-25.499 -20.672,-46.171 -46.172,-46.171 -25.5,0 -46.171,20.672 -46.171,46.171 h -13.024 c 0,-32.691 26.502,-59.196 59.195,-59.196 32.693,0 59.196,26.505 59.196,59.196 z" /></g><g
           transform="translate(113.4305,97.041)"
           id="g36"><path
             id="path38"
             style="fill:#ffffff;fill-opacity:1;fill-rule:nonzero;stroke:none"
             d="m 0,0 h 13.024 c -10e-4,32.694 -26.503,59.195 -59.196,59.195 -30.496,0 -55.606,-23.059 -58.843,-52.696 -0.39,-3.574 2.563,-6.499 6.16,-6.499 3.596,0 6.463,2.929 6.964,6.491 3.157,22.426 22.423,39.678 45.719,39.678 C -20.673,46.169 -0.001,25.499 0,0" /></g></g></g><g
       id="g40"><g
         clip-path="url(#clipPath46)"
         id="g42"><g
           id="g48"><g
             id="g50" /><g
             id="g62"><g
               id="g60"
               clip-path="url(#clipPath54)"><g
                 id="g58"
                 transform="translate(541.4114,109.3506)"><path
                   id="path56"
                   style="fill:#ffb600;fill-opacity:1;fill-rule:nonzero;stroke:none"
                   d="m 0,0 c -6.796,0 -12.308,-5.518 -12.308,-12.309 0,-6.799 5.513,-12.312 12.309,-12.312 6.791,0 12.303,5.513 12.303,12.312 C 12.304,-5.518 6.792,0 0,0" /></g></g></g></g><g
           transform="translate(547.9222,97.042)"
           id="g64"><path
             id="path66"
             style="fill:#ffffff;fill-opacity:1;fill-rule:nonzero;stroke:none"
             d="m 0,0 c 0,-3.593 -2.918,-6.515 -6.51,-6.515 -3.592,0 -6.514,2.922 -6.514,6.515 0,3.594 2.921,6.512 6.513,6.512 C -2.919,6.512 0,3.594 0,0" /></g><g
           id="g68"><g
             id="g70" /><g
             id="g82"><g
               id="g80"
               clip-path="url(#clipPath74)"><g
                 id="g78"
                 transform="translate(436.0433,109.3496)"><path
                   id="path76"
                   style="fill:#ffb600;fill-opacity:1;fill-rule:nonzero;stroke:none"
                   d="m 0,0 c -6.795,0 -12.306,-5.518 -12.306,-12.31 0,-6.797 5.511,-12.311 12.307,-12.311 6.792,0 12.305,5.514 12.305,12.311 C 12.306,-5.518 6.793,0 0,0" /></g></g></g></g><g
           transform="translate(442.556,97.04)"
           id="g84"><path
             id="path86"
             style="fill:#ffffff;fill-opacity:1;fill-rule:nonzero;stroke:none"
             d="m 0,0 c 0,-3.593 -2.919,-6.513 -6.512,-6.513 -3.592,0 -6.512,2.92 -6.512,6.513 0,3.594 2.92,6.512 6.512,6.512 C -2.919,6.512 0,3.594 0,0" /></g><g
           id="g88"><g
             id="g90" /><g
             id="g102"><g
               id="g100"
               clip-path="url(#clipPath94)"><g
                 id="g98"
                 transform="translate(330.6761,109.3506)"><path
                   id="path96"
                   style="fill:#ffb600;fill-opacity:1;fill-rule:nonzero;stroke:none"
                   d="m 0,0 c -6.796,0 -12.307,-5.518 -12.307,-12.31 0,-6.798 5.511,-12.311 12.307,-12.311 6.793,0 12.305,5.513 12.305,12.311 C 12.305,-5.518 6.793,0 0,0" /></g></g></g></g><g
           transform="translate(337.1878,97.041)"
           id="g104"><path
             id="path106"
             style="fill:#ffffff;fill-opacity:1;fill-rule:nonzero;stroke:none"
             d="m 0,0 c 0,-3.594 -2.918,-6.514 -6.511,-6.514 -3.592,0 -6.513,2.92 -6.513,6.514 0,3.593 2.921,6.512 6.513,6.512 C -2.918,6.512 0,3.593 0,0" /></g><g
           id="g108"><g
             id="g110" /><g
             id="g122"><g
               id="g120"
               clip-path="url(#clipPath114)"><g
                 id="g118"
                 transform="translate(225.3084,109.3506)"><path
                   id="path116"
                   style="fill:#ffb600;fill-opacity:1;fill-rule:nonzero;stroke:none"
                   d="m 0,0 c -6.796,0 -12.307,-5.518 -12.307,-12.31 0,-6.798 5.511,-12.311 12.307,-12.311 6.792,0 12.305,5.513 12.305,12.311 C 12.305,-5.518 6.792,0 0,0" /></g></g></g></g><g
           transform="translate(231.8192,97.041)"
           id="g124"><path
             id="path126"
             style="fill:#ffffff;fill-opacity:1;fill-rule:nonzero;stroke:none"
             d="m 0,0 c 0,-3.593 -2.918,-6.515 -6.509,-6.515 -3.593,0 -6.515,2.922 -6.515,6.515 0,3.593 2.922,6.512 6.515,6.512 C -2.918,6.512 0,3.593 0,0" /></g><g
           id="g128"><g
             id="g130" /><g
             id="g142"><g
               id="g140"
               clip-path="url(#clipPath134)"><g
                 id="g138"
                 transform="translate(119.9413,109.3516)"><path
                   id="path136"
                   style="fill:#ffb600;fill-opacity:1;fill-rule:nonzero;stroke:none"
                   d="m 0,0 c -6.796,0 -12.307,-5.519 -12.307,-12.311 0,-6.798 5.511,-12.31 12.307,-12.31 6.793,0 12.305,5.512 12.305,12.31 C 12.305,-5.519 6.793,0 0,0" /></g></g></g></g><g
           transform="translate(126.451,97.041)"
           id="g144"><path
             id="path146"
             style="fill:#ffffff;fill-opacity:1;fill-rule:nonzero;stroke:none"
             d="m 0,0 c 0,-3.593 -2.918,-6.514 -6.509,-6.514 -3.592,0 -6.513,2.921 -6.513,6.514 0,3.594 2.921,6.512 6.513,6.512 C -2.918,6.512 0,3.594 0,0" /></g></g></g><g
       id="g148"><g
         clip-path="url(#clipPath154)"
         id="g150"><g
           transform="translate(488.7328,124.5791)"
           id="g156"><path
             id="path158"
             style="fill:#ffffff;fill-opacity:1;fill-rule:nonzero;stroke:none"
             d="m 0,0 c -16.534,0 -29.938,-13.422 -29.938,-29.946 0,-16.54 13.404,-29.949 29.938,-29.949 16.521,0 29.929,13.409 29.929,29.949 C 29.929,-13.422 16.521,0 0,0 m 32.973,-29.946 c 0,-18.221 -14.772,-32.991 -32.973,-32.991 -18.214,0 -32.983,14.77 -32.983,32.991 0,18.203 14.769,32.988 32.983,32.988 18.201,0 32.973,-14.785 32.973,-32.988" /></g></g></g><text
       id="text162"
       style="font-variant:normal;font-weight:bold;font-stretch:normal;font-size:16px;font-family:'Myriad Pro';-inkscape-font-specification:MyriadPro-Bold;writing-mode:lr-tb;fill:#ffb600;fill-opacity:1;fill-rule:nonzero;stroke:none"
       transform="matrix(1,0,0,-1,423.0322,21.0244)"><tspan
         id="tspan160"
         y="0"
         x="0 10.272 18.816 28.112 36.784 45.487999 48.720001 57.599998 66.480003 69.711998 80.736 89.4384 100.4464 109.1984 119.5184">ЧЕРЕЗ 12 НЕДЕЛЬ</tspan></text>
<g
       id="g164"><g
         clip-path="url(#clipPath170)"
         id="g166"><text
           id="text174"
           style="font-variant:normal;font-weight:bold;font-stretch:normal;font-size:16px;font-family:'Myriad Pro';-inkscape-font-specification:MyriadPro-Bold;writing-mode:lr-tb;fill:#ffffff;fill-opacity:1;fill-rule:nonzero;stroke:none"
           transform="matrix(1,0,0,-1,446.7759,1.8242)"><tspan
             id="tspan172"
             y="0"
             x="0 10.832 22.304001 32.142399 42.462399 51.006401 54.2384 65.070396 74.670403 82.9104 94.382401">ПОСЛЕ ПЯТОЙ</tspan></text>
<text
           id="text178"
           style="font-variant:normal;font-weight:bold;font-stretch:normal;font-size:54.00059891px;font-family:'Myriad Pro';-inkscape-font-specification:MyriadPro-Bold;writing-mode:lr-tb;fill:#ffffff;fill-opacity:1;fill-rule:nonzero;stroke:none"
           transform="matrix(1,5.5554938e-6,1.2962819e-5,-0.99998889,474.1518,78.8178)"><tspan
             id="tspan176"
             y="0"
             x="0">6</tspan></text>
</g></g><g
       id="g180"><g
         clip-path="url(#clipPath186)"
         id="g182"><g
           transform="translate(383.3636,124.5781)"
           id="g188"><path
             id="path190"
             style="fill:#ffffff;fill-opacity:1;fill-rule:nonzero;stroke:none"
             d="m 0,0 c -16.533,0 -29.939,-13.422 -29.939,-29.945 0,-16.541 13.406,-29.95 29.94,-29.95 16.52,0 29.93,13.409 29.93,29.95 C 29.931,-13.422 16.521,0 0,0 m 32.974,-29.945 c 0,-18.222 -14.771,-32.991 -32.973,-32.991 -18.216,0 -32.983,14.769 -32.983,32.991 0,18.202 14.767,32.989 32.982,32.989 18.203,0 32.974,-14.787 32.974,-32.989" /></g><text
           id="text194"
           style="font-variant:normal;font-weight:bold;font-stretch:normal;font-size:16px;font-family:'Myriad Pro';-inkscape-font-specification:MyriadPro-Bold;writing-mode:lr-tb;fill:#ffb600;fill-opacity:1;fill-rule:nonzero;stroke:none"
           transform="matrix(1,0,0,-1,311.5215,176.7187)"><tspan
             id="tspan192"
             y="0"
             x="0 10.272 18.816 28.112 36.784 45.487999 48.720001 57.599998 66.480003 69.711998 80.736 89.4384 100.4464 109.1984 119.5184">ЧЕРЕЗ 10 НЕДЕЛЬ</tspan></text>
</g></g><text
       id="text198"
       style="font-variant:normal;font-weight:bold;font-stretch:normal;font-size:16px;font-family:'Myriad Pro';-inkscape-font-specification:MyriadPro-Bold;writing-mode:lr-tb;fill:#ffffff;fill-opacity:1;fill-rule:nonzero;stroke:none"
       transform="matrix(1,0,0,-1,311.5215,157.5186)"><tspan
         id="tspan196"
         y="0"
         x="0 10.832 22.304001 32.144001 42.464001 51.007999 54.240002 64.512001 73.056 81.823997 91.487999 100.032 109.472 117.712 129.18401">ПОСЛЕ ЧЕТВЁРТОЙ</tspan></text>
<text
       id="text202"
       style="font-variant:normal;font-weight:bold;font-stretch:normal;font-size:54px;font-family:'Myriad Pro';-inkscape-font-specification:MyriadPro-Bold;writing-mode:lr-tb;fill:#ffffff;fill-opacity:1;fill-rule:nonzero;stroke:none"
       transform="matrix(1,0,0,-1,369.1514,78.854)"><tspan
         id="tspan200"
         y="0"
         x="0">5</tspan></text>
<g
       id="g204"><g
         clip-path="url(#clipPath210)"
         id="g206"><g
           id="g212"><g
             id="g214" /><g
             id="g250"><g
               id="g248"
               clip-path="url(#clipPath218)"><g
                 id="g222"
                 transform="translate(277.9974,124.5791)"><path
                   id="path220"
                   style="fill:#e0e0e0;fill-opacity:1;fill-rule:nonzero;stroke:none"
                   d="m 0,0 c -16.535,0 -29.939,-13.422 -29.939,-29.946 0,-16.54 13.404,-29.948 29.939,-29.949 16.52,0 29.928,13.409 29.928,29.949 C 29.928,-13.422 16.52,0 0,0 m 32.973,-29.946 c 0,-18.221 -14.772,-32.991 -32.973,-32.991 -18.214,10e-4 -32.984,14.77 -32.984,32.991 0,18.203 14.77,32.988 32.984,32.988 18.201,0 32.973,-14.785 32.973,-32.988" /></g><text
                 id="text228"
                 style="font-variant:normal;font-weight:bold;font-stretch:normal;font-size:16px;font-family:'Myriad Pro';-inkscape-font-specification:MyriadPro-Bold;writing-mode:lr-tb;fill:#e0e0e0;fill-opacity:1;fill-rule:nonzero;stroke:none"
                 transform="matrix(1,0,0,-1,212.5586,20.7036)"><tspan
                   id="tspan224"
                   y="0"
                   x="0 10.272 18.816 28.112 36.784 45.487999 48.720001 57.599998 60.832001 71.856003 80.559998 91.568001 100.32 110.64">ЧЕРЕЗ 8 НЕДЕЛЬ</tspan><tspan
                   id="tspan226"
                   y="19.200001"
                   x="0.72000003 11.552 23.024 32.863998 43.183998 51.728001 54.959999 63.728001 73.024002 81.568001 90.335999 99.984001 108.528">ПОСЛЕ ТРЕТЬЕЙ</tspan></text>
<text
                 id="text232"
                 style="font-variant:normal;font-weight:bold;font-stretch:normal;font-size:54px;font-family:'Myriad Pro';-inkscape-font-specification:MyriadPro-Bold;writing-mode:lr-tb;fill:#e0e0e0;fill-opacity:1;fill-rule:nonzero;stroke:none"
                 transform="matrix(1,0,0,-1,263.1514,78.854)"><tspan
                   id="tspan230"
                   y="0"
                   x="0">4</tspan></text>
<g
                 id="g236"
                 transform="translate(277.9974,124.5791)"><path
                   id="path234"
                   style="fill:#ffffff;fill-opacity:1;fill-rule:nonzero;stroke:none"
                   d="m 0,0 c -16.535,0 -29.939,-13.422 -29.939,-29.946 0,-16.54 13.404,-29.948 29.939,-29.949 16.52,0 29.928,13.409 29.928,29.949 C 29.928,-13.422 16.52,0 0,0 m 32.973,-29.946 c 0,-18.221 -14.772,-32.991 -32.973,-32.991 -18.214,10e-4 -32.984,14.77 -32.984,32.991 0,18.203 14.77,32.988 32.984,32.988 18.201,0 32.973,-14.785 32.973,-32.988" /></g><text
                 id="text242"
                 style="font-variant:normal;font-weight:bold;font-stretch:normal;font-size:16px;font-family:'Myriad Pro';-inkscape-font-specification:MyriadPro-Bold;writing-mode:lr-tb;fill:#ffffff;fill-opacity:1;fill-rule:nonzero;stroke:none"
                 transform="matrix(1,0,0,-1,212.5586,20.7036)"><tspan
                   id="tspan238"
                   y="0"
                   x="0 10.272 18.816 28.112 36.784 45.487999 48.720001 57.599998 60.832001 71.856003 80.559998 91.568001 100.32 110.64">ЧЕРЕЗ 8 НЕДЕЛЬ</tspan><tspan
                   id="tspan240"
                   y="19.200001"
                   x="0.72000003 11.552 23.024 32.863998 43.183998 51.728001 54.959999 63.728001 73.024002 81.568001 90.335999 99.984001 108.528">ПОСЛЕ ТРЕТЬЕЙ</tspan></text>
<text
                 id="text246"
                 style="font-variant:normal;font-weight:bold;font-stretch:normal;font-size:54px;font-family:'Myriad Pro';-inkscape-font-specification:MyriadPro-Bold;writing-mode:lr-tb;fill:#ffffff;fill-opacity:1;fill-rule:nonzero;stroke:none"
                 transform="matrix(1,0,0,-1,263.1514,78.854)"><tspan
                   id="tspan244"
                   y="0"
                   x="0">4</tspan></text>
</g></g></g></g></g><g
       id="g252"><g
         clip-path="url(#clipPath258)"
         id="g254"><g
           transform="translate(172.6287,124.5791)"
           id="g260"><path
             id="path262"
             style="fill:#ffffff;fill-opacity:1;fill-rule:nonzero;stroke:none"
             d="m 0,0 c -16.533,0 -29.939,-13.422 -29.939,-29.946 0,-16.542 13.406,-29.95 29.939,-29.95 16.521,0 29.929,13.408 29.929,29.95 C 29.929,-13.422 16.521,0 0,0 m 32.973,-29.946 c 0,-18.222 -14.772,-32.991 -32.973,-32.991 -18.215,0 -32.983,14.769 -32.983,32.991 0,18.203 14.768,32.989 32.983,32.989 18.201,0 32.973,-14.786 32.973,-32.989" /></g><text
           id="text266"
           style="font-variant:normal;font-weight:bold;font-stretch:normal;font-size:16px;font-family:'Myriad Pro';-inkscape-font-specification:MyriadPro-Bold;writing-mode:lr-tb;fill:#ffb600;fill-opacity:1;fill-rule:nonzero;stroke:none"
           transform="matrix(1,0,0,-1,111.7314,176.751)"><tspan
             id="tspan264"
             y="0"
             x="0 10.272 18.816 28.112 36.784 45.487999 48.720001 57.599998 60.832001 71.856003 80.558403 91.566399 100.3184 110.6384">ЧЕРЕЗ 6 НЕДЕЛЬ</tspan></text>
</g></g><text
       id="text270"
       style="font-variant:normal;font-weight:bold;font-stretch:normal;font-size:16px;font-family:'Myriad Pro';-inkscape-font-specification:MyriadPro-Bold;writing-mode:lr-tb;fill:#ffffff;fill-opacity:1;fill-rule:nonzero;stroke:none"
       transform="matrix(1,0,0,-1,111.7314,157.5508)"><tspan
         id="tspan268"
         y="0"
         x="0 10.832 22.304001 32.144001 42.464001 51.007999 54.240002 63.792 72.031998 83.503998 92.751999 104.224">ПОСЛЕ ВТОРОЙ</tspan></text>
<text
       id="text274"
       style="font-variant:normal;font-weight:bold;font-stretch:normal;font-size:54px;font-family:'Myriad Pro';-inkscape-font-specification:MyriadPro-Bold;writing-mode:lr-tb;fill:#ffffff;fill-opacity:1;fill-rule:nonzero;stroke:none"
       transform="matrix(1,0,0,-1,158.1514,79.8389)"><tspan
         id="tspan272"
         y="0"
         x="0">3</tspan></text>
<g
       id="g276"><g
         clip-path="url(#clipPath282)"
         id="g278"><g
           transform="translate(65.2762,124.4053)"
           id="g284"><path
             id="path286"
             style="fill:#ffffff;fill-opacity:1;fill-rule:nonzero;stroke:none"
             d="m 0,0 c -16.533,0 -29.939,-13.422 -29.939,-29.946 0,-16.542 13.406,-29.95 29.939,-29.95 16.52,0 29.929,13.408 29.929,29.95 C 29.929,-13.422 16.52,0 0,0 m 32.973,-29.946 c 0,-18.222 -14.771,-32.993 -32.973,-32.993 -18.215,0 -32.983,14.771 -32.983,32.993 0,18.202 14.768,32.988 32.983,32.988 18.202,0 32.973,-14.786 32.973,-32.988" /></g></g></g><text
       id="text290"
       style="font-variant:normal;font-weight:bold;font-stretch:normal;font-size:54px;font-family:'Myriad Pro';-inkscape-font-specification:MyriadPro-Bold;writing-mode:lr-tb;fill:#ffffff;fill-opacity:1;fill-rule:nonzero;stroke:none"
       transform="matrix(1,0,0,-1,50.1514,79.8384)"><tspan
         id="tspan288"
         y="0"
         x="0">2</tspan></text>
<text
       id="text294"
       style="font-variant:normal;font-weight:bold;font-stretch:normal;font-size:16px;font-family:'Myriad Pro';-inkscape-font-specification:MyriadPro-Bold;writing-mode:lr-tb;fill:#ffb600;fill-opacity:1;fill-rule:nonzero;stroke:none"
       transform="matrix(1,0,0,-1,1.2637,20.6084)"><tspan
         id="tspan292"
         y="0"
         x="0 10.272 18.816 28.112 36.784 45.487999 48.720001 57.599998 60.832001 71.856003 80.558403 91.566399 100.3184 110.6384">ЧЕРЕЗ 4 НЕДЕЛИ</tspan></text>
<g
       id="g296"><g
         clip-path="url(#clipPath302)"
         id="g298"><text
           id="text306"
           style="font-variant:normal;font-weight:bold;font-stretch:normal;font-size:16px;font-family:'Myriad Pro';-inkscape-font-specification:MyriadPro-Bold;writing-mode:lr-tb;fill:#ffffff;fill-opacity:1;fill-rule:nonzero;stroke:none"
           transform="matrix(1,0,0,-1,4.5913,1.4082)"><tspan
             id="tspan304"
             y="0"
             x="0 10.832 22.304001 32.142399 42.462399 51.006401 54.2384 65.070396 73.614403 82.9104 92.510399 103.9824">ПОСЛЕ ПЕРВОЙ</tspan></text>
</g></g></g></svg>